# xmcd CD database file
#
# Track frame offsets:
#	150
#	13125
#	32066
#	44990
#	59885
#	73679
#	87811
#	100479
#	114696
#	126417
#	140826
#	153958
#	173500
#	184016
#	198273
#
# Disc length: 2862 seconds
#
# Revision: 2
# Processed by: cddbd v1.5.1PL0 Copyright (c) Steve Scherf et al.
# Submitted via: CDex 1.51
#
DISCID=e20b2c0f
DTITLE=Joaquim and Manuel - Acustico
DYEAR=2005
DGENRE=Sertanejo
TTITLE0=Namorada que Sonhei
TTITLE1=Sonhei com Você
TTITLE2=Só mais uma Vez
TTITLE3=Boate Azul
TTITLE4=Fio de Cabelo
TTITLE5=O Homem Apaixonado
TTITLE6=Música da Saudade
TTITLE7=Coração Quebrado
TTITLE8=Assino com X
TTITLE9=Amargurado
TTITLE10=Resto de Mulher
TTITLE11=Som de Cristal
TTITLE12=Telefone Mudo
TTITLE13=Saudade Judia
TTITLE14=Tempo ao Tempo - A Noite do Nosso Amor
EXTD=YEAR: 2005
EXTT0=
EXTT1=
EXTT2=
EXTT3=
EXTT4=
EXTT5=
EXTT6=
EXTT7=
EXTT8=
EXTT9=
EXTT10=
EXTT11=
EXTT12=
EXTT13=
EXTT14=
PLAYORDER=
